<svg width="290" height="39" viewBox="0 0 290 39" fill="none" xmlns="http://www.w3.org/2000/svg">
<path d="M0.352 37.8951L11.584 3.83514H17.616L28.848 37.8951H23.336L17.824 19.3311C17.2693 17.4591 16.7147 15.5871 16.16 13.7151C15.64 11.8085 15.12 9.90181 14.6 7.99514H14.392C13.9067 9.90181 13.3867 11.8085 12.832 13.7151C12.312 15.5871 11.7747 17.4591 11.22 19.3311L5.656 37.8951H0.352ZM6.644 28.1191V24.0111H22.452V28.1191H6.644ZM35.2757 37.8951V12.4671H39.5397L39.9557 18.3951H40.1117C41.429 16.3151 43.041 14.7031 44.9477 13.5591C46.8544 12.4151 48.9344 11.8431 51.1877 11.8431C52.1584 11.8431 53.0424 11.9298 53.8397 12.1031C54.637 12.2765 55.417 12.5365 56.1797 12.8831L55.0357 17.3031C54.169 16.9911 53.4237 16.7831 52.7997 16.6791C52.1757 16.5405 51.3784 16.4711 50.4077 16.4711C48.5704 16.4711 46.8024 16.9911 45.1037 18.0311C43.405 19.0711 41.845 20.8738 40.4237 23.4391V37.8951H35.2757ZM77.6354 38.5191C75.07 38.5191 73.042 38.0685 71.5514 37.1671C70.0954 36.2658 69.0554 35.0178 68.4314 33.4231C67.8074 31.8285 67.4954 29.9738 67.4954 27.8591V16.6271H60.5274V12.7791L67.7034 12.4671L68.3794 4.45914H72.6434V12.4671H84.6554V16.6271H72.6434V27.8591C72.6434 29.2805 72.834 30.4938 73.2154 31.4991C73.5967 32.4698 74.238 33.1978 75.1394 33.6831C76.0407 34.1338 77.254 34.3591 78.7794 34.3591C79.9234 34.3591 80.9634 34.2725 81.8994 34.0991C82.8354 33.8911 83.7367 33.6311 84.6034 33.3191L85.6434 37.0631C84.4994 37.4445 83.2687 37.7738 81.9514 38.0511C80.6687 38.3631 79.23 38.5191 77.6354 38.5191ZM131.311 37.8951V16.6271H119.923V12.4671H136.459V37.8951H131.311ZM133.443 7.52714C132.333 7.52714 131.415 7.19781 130.687 6.53914C129.959 5.84581 129.595 4.94447 129.595 3.83514C129.595 2.72581 129.959 1.84181 130.687 1.18314C131.415 0.489807 132.333 0.143141 133.443 0.143141C134.552 0.143141 135.471 0.489807 136.199 1.18314C136.927 1.84181 137.291 2.72581 137.291 3.83514C137.291 4.94447 136.927 5.84581 136.199 6.53914C135.471 7.19781 134.552 7.52714 133.443 7.52714ZM149.074 37.8951V12.4671H153.286L153.702 16.5751H153.91C155.193 15.2578 156.58 14.1485 158.07 13.2471C159.561 12.3111 161.294 11.8431 163.27 11.8431C166.217 11.8431 168.384 12.7445 169.77 14.5471C171.192 16.3151 171.902 18.8458 171.902 22.1391V37.8951H166.754V22.8151C166.754 20.5965 166.338 18.9671 165.506 17.9271C164.709 16.8525 163.357 16.3151 161.45 16.3151C160.098 16.3151 158.885 16.6618 157.81 17.3551C156.736 18.0138 155.54 19.0191 154.222 20.3711V37.8951H149.074ZM207.638 37.8951V3.83514H218.402C220.898 3.83514 223.099 4.16447 225.006 4.82314C226.947 5.44714 228.455 6.52181 229.53 8.04714C230.604 9.53781 231.142 11.5485 231.142 14.0791C231.142 16.5405 230.587 18.5685 229.478 20.1631C228.403 21.7578 226.895 22.9538 224.954 23.7511C223.047 24.5138 220.863 24.8951 218.402 24.8951H212.838V37.8951H207.638ZM212.838 20.6831H217.882C220.655 20.6831 222.7 20.1458 224.018 19.0711C225.335 17.9965 225.994 16.3325 225.994 14.0791C225.994 11.7911 225.318 10.2138 223.966 9.34714C222.614 8.44581 220.586 7.99514 217.882 7.99514H212.838V20.6831ZM237.466 37.8951V3.83514H258.89V8.20314H242.666V17.9271H256.394V22.2951H242.666V33.5271H259.41V37.8951H237.466ZM279.201 38.5191C277.087 38.5191 275.111 38.1378 273.273 37.3751C271.471 36.5778 269.876 35.4338 268.489 33.9431C267.137 32.4178 266.063 30.5631 265.265 28.3791C264.503 26.1951 264.121 23.7165 264.121 20.9431C264.121 17.2338 264.797 14.0618 266.149 11.4271C267.501 8.75781 269.339 6.72981 271.661 5.34314C273.984 3.92181 276.636 3.21114 279.617 3.21114C281.697 3.21114 283.552 3.64447 285.181 4.51114C286.811 5.34314 288.145 6.31381 289.185 7.42314L286.273 10.6991C285.407 9.76314 284.419 9.03514 283.309 8.51514C282.235 7.99514 281.004 7.73514 279.617 7.73514C277.607 7.73514 275.839 8.27247 274.313 9.34714C272.788 10.3871 271.592 11.8778 270.725 13.8191C269.893 15.7605 269.477 18.0831 269.477 20.7871C269.477 23.4911 269.893 25.8311 270.725 27.8071C271.592 29.7831 272.788 31.3085 274.313 32.3831C275.873 33.4578 277.676 33.9951 279.721 33.9951C281.212 33.9951 282.547 33.6831 283.725 33.0591C284.904 32.4005 285.996 31.5165 287.001 30.4071L289.913 33.5791C288.596 35.1391 287.053 36.3525 285.285 37.2191C283.517 38.0858 281.489 38.5191 279.201 38.5191Z" fill="#FAFCFF" fill-opacity="0.4"/>
</svg>
