<svg width="96" height="14" viewBox="0 0 96 14" fill="none" xmlns="http://www.w3.org/2000/svg">
<path d="M0.442 13L4.114 1.865H6.086L9.758 13H7.956L6.154 6.931C5.97267 6.319 5.79133 5.707 5.61 5.095C5.44 4.47167 5.27 3.84833 5.1 3.225H5.032C4.87333 3.84833 4.70333 4.47167 4.522 5.095C4.352 5.707 4.17633 6.319 3.995 6.931L2.176 13H0.442ZM2.499 9.804V8.461H7.667V9.804H2.499ZM11.8594 13V4.687H13.2534L13.3894 6.625H13.4404C13.871 5.945 14.398 5.418 15.0214 5.044C15.6447 4.67 16.3247 4.483 17.0614 4.483C17.3787 4.483 17.6677 4.51133 17.9284 4.568C18.189 4.62467 18.444 4.70967 18.6934 4.823L18.3194 6.268C18.036 6.166 17.7924 6.098 17.5884 6.064C17.3844 6.01867 17.1237 5.996 16.8064 5.996C16.2057 5.996 15.6277 6.166 15.0724 6.506C14.517 6.846 14.007 7.43533 13.5424 8.274V13H11.8594ZM25.7077 13.204C24.8691 13.204 24.2061 13.0567 23.7187 12.762C23.2427 12.4673 22.9027 12.0593 22.6987 11.538C22.4947 11.0167 22.3927 10.4103 22.3927 9.719V6.047H20.1147V4.789L22.4607 4.687L22.6817 2.069H24.0757V4.687H28.0027V6.047H24.0757V9.719C24.0757 10.1837 24.1381 10.5803 24.2627 10.909C24.3874 11.2263 24.5971 11.4643 24.8917 11.623C25.1864 11.7703 25.5831 11.844 26.0817 11.844C26.4557 11.844 26.7957 11.8157 27.1017 11.759C27.4077 11.691 27.7024 11.606 27.9857 11.504L28.3257 12.728C27.9517 12.8527 27.5494 12.9603 27.1187 13.051C26.6994 13.153 26.2291 13.204 25.7077 13.204ZM43.2554 13V6.047H39.5324V4.687H44.9384V13H43.2554ZM43.9524 3.072C43.5898 3.072 43.2894 2.96433 43.0514 2.749C42.8134 2.52233 42.6944 2.22767 42.6944 1.865C42.6944 1.50233 42.8134 1.21333 43.0514 0.997999C43.2894 0.771333 43.5898 0.658 43.9524 0.658C44.3151 0.658 44.6154 0.771333 44.8534 0.997999C45.0914 1.21333 45.2104 1.50233 45.2104 1.865C45.2104 2.22767 45.0914 2.52233 44.8534 2.749C44.6154 2.96433 44.3151 3.072 43.9524 3.072ZM49.0628 13V4.687H50.4398L50.5758 6.03H50.6438C51.0631 5.59933 51.5165 5.23667 52.0038 4.942C52.4911 4.636 53.0578 4.483 53.7038 4.483C54.6671 4.483 55.3755 4.77767 55.8288 5.367C56.2935 5.945 56.5258 6.77233 56.5258 7.849V13H54.8428V8.07C54.8428 7.34467 54.7068 6.812 54.4348 6.472C54.1741 6.12067 53.7321 5.945 53.1088 5.945C52.6668 5.945 52.2701 6.05833 51.9188 6.285C51.5675 6.50033 51.1765 6.829 50.7458 7.271V13H49.0628ZM68.2085 13V1.865H71.7275C72.5435 1.865 73.2632 1.97267 73.8865 2.188C74.5212 2.392 75.0142 2.74333 75.3655 3.242C75.7168 3.72933 75.8925 4.38667 75.8925 5.214C75.8925 6.01867 75.7112 6.68167 75.3485 7.203C74.9972 7.72433 74.5042 8.11533 73.8695 8.376C73.2462 8.62533 72.5322 8.75 71.7275 8.75H69.9085V13H68.2085ZM69.9085 7.373H71.5575C72.4642 7.373 73.1328 7.19733 73.5635 6.846C73.9942 6.49467 74.2095 5.95067 74.2095 5.214C74.2095 4.466 73.9885 3.95033 73.5465 3.667C73.1045 3.37233 72.4415 3.225 71.5575 3.225H69.9085V7.373ZM77.9599 13V1.865H84.9639V3.293H79.6599V6.472H84.1479V7.9H79.6599V11.572H85.1339V13H77.9599ZM91.6042 13.204C90.9129 13.204 90.2669 13.0793 89.6662 12.83C89.0769 12.5693 88.5556 12.1953 88.1022 11.708C87.6602 11.2093 87.3089 10.603 87.0482 9.889C86.7989 9.175 86.6742 8.36467 86.6742 7.458C86.6742 6.24533 86.8952 5.20833 87.3372 4.347C87.7792 3.47433 88.3799 2.81133 89.1392 2.358C89.8986 1.89333 90.7656 1.661 91.7402 1.661C92.4202 1.661 93.0266 1.80267 93.5592 2.086C94.0919 2.358 94.5282 2.67533 94.8682 3.038L93.9162 4.109C93.6329 3.803 93.3099 3.565 92.9472 3.395C92.5959 3.225 92.1936 3.14 91.7402 3.14C91.0829 3.14 90.5049 3.31567 90.0062 3.667C89.5076 4.007 89.1166 4.49433 88.8332 5.129C88.5612 5.76367 88.4252 6.523 88.4252 7.407C88.4252 8.291 88.5612 9.056 88.8332 9.702C89.1166 10.348 89.5076 10.8467 90.0062 11.198C90.5162 11.5493 91.1056 11.725 91.7742 11.725C92.2616 11.725 92.6979 11.623 93.0832 11.419C93.4686 11.2037 93.8256 10.9147 94.1542 10.552L95.1062 11.589C94.6756 12.099 94.1712 12.4957 93.5932 12.779C93.0152 13.0623 92.3522 13.204 91.6042 13.204Z" fill="white"/>
</svg>
