<svg width="112" height="126" viewBox="0 0 112 126" fill="none" xmlns="http://www.w3.org/2000/svg">
<path d="M0 0H8V56V56C3.58172 56 0 52.4183 0 48V0Z" fill="#FAFCFF"/>
<path d="M31.2424 88.4297C27.8358 85.0231 27.8358 79.4999 31.2424 76.0933V76.0933L70.5647 115.416L64.3965 121.584L31.2424 88.4297Z" fill="#FAFCFF"/>
<path d="M105.832 76.0942V76.0942C109.239 79.5008 109.239 85.024 105.832 88.4306L68.5378 125.725L62.3696 119.557L105.832 76.0942Z" fill="#FAFCFF"/>
<path d="M64 64V64C68.9706 64 73 68.0294 73 73V118H64V64Z" fill="#FAFCFF"/>
<path d="M8 55H55C59.9706 55 64 59.0294 64 64V64H17C12.0294 64 8 59.9706 8 55V55Z" fill="#FAFCFF"/>
</svg>
