<svg width="134" height="151" viewBox="0 0 134 151" fill="none" xmlns="http://www.w3.org/2000/svg">
<path d="M0 0H10V67V67C4.47715 67 0 62.5228 0 57V0Z" fill="#292C32"/>
<path d="M37.3798 105.421C33.304 101.345 33.304 94.737 37.3798 90.6612V90.6612L84.426 137.707L77.0462 145.087L37.3798 105.421Z" fill="#292C32"/>
<path d="M126.62 90.6621V90.6621C130.696 94.7379 130.696 101.346 126.62 105.422L82.0003 150.042L74.6205 142.662L126.62 90.6621Z" fill="#292C32"/>
<path d="M77 76V76C82.5228 76 87 80.4772 87 86V141H77V76Z" fill="#292C32"/>
<path d="M10 66H67C72.5228 66 77 70.4772 77 76V76H20C14.4772 76 10 71.5228 10 66V66Z" fill="#292C32"/>
</svg>
