<svg width="100" height="42" viewBox="0 0 100 42" fill="none" xmlns="http://www.w3.org/2000/svg">
<path d="M71.0427 41.2696H65.0195V0.730347H86.1007C90.9656 0.730347 94.4984 1.65696 96.6992 3.51018C98.9 5.3634 100 8.35558 100 12.4867C100 17.7375 98.1471 21.2123 94.4405 22.9111C97.9154 24.301 99.6529 27.216 99.6529 31.656V41.2696H93.6876V31.8876C93.6876 29.7641 93.0698 28.2391 91.8343 27.3125C90.5988 26.3473 88.649 25.8647 85.9849 25.8647H71.0427V41.2696ZM71.0427 20.1892H85.7532C88.649 20.1892 90.7532 19.6486 92.066 18.5676C93.3787 17.4479 94.0351 15.6719 94.0351 13.2396C94.0351 10.8458 93.3787 9.10845 92.066 8.02741C90.7532 6.94636 88.649 6.40584 85.7532 6.40584H71.0427V20.1892Z" fill="#FAFCFF" fill-opacity="0.5"/>
<path d="M49.2441 41.2696V0.730347H55.2673V41.2696H49.2441Z" fill="#FAFCFF" fill-opacity="0.5"/>
<path d="M0 21C0 13.7415 1.64093 8.47145 4.9228 5.18971C8.20467 1.90796 13.475 0.26709 20.7337 0.26709C26.641 0.26709 31.197 1.34814 34.4017 3.51023C37.6449 5.63371 39.7492 9.01198 40.7145 13.645H34.4017C33.475 10.981 31.892 9.03128 29.6526 7.7958C27.4518 6.56032 24.4789 5.94258 20.7337 5.94258C15.5985 5.94258 11.8533 7.13945 9.49811 9.53319C7.1815 11.8883 6.02319 15.7106 6.02319 21C6.02319 26.328 7.23941 30.1696 9.67185 32.5247C12.1043 34.8799 16.1584 36.0574 21.8341 36.0574C26.2742 36.0574 29.5175 35.3625 31.5638 33.9726C33.6488 32.544 34.6913 30.3047 34.6913 27.2546V24.9381H20.4441V19.6101H40.7724V27.2546C40.7724 32.3124 39.2473 35.9995 36.1971 38.316C33.1855 40.594 28.3785 41.7329 21.7761 41.7329C14.0155 41.7329 8.43633 40.1113 5.03863 36.8682C1.67954 33.5865 0 28.2971 0 21Z" fill="#FAFCFF" fill-opacity="0.5"/>
</svg>
