<svg width="120" height="42" viewBox="0 0 120 42" fill="none" xmlns="http://www.w3.org/2000/svg">
<path d="M87.6783 24.5126L85.29 40.2097H77.8594L83.7508 1.79022H91.1813L88.7929 17.4873H93.039L109.917 1.79022H120.001L99.408 21L115.49 40.2097H105.14L91.7652 24.5126H87.6783Z" fill="#FAFCFF" fill-opacity="0.5"/>
<path d="M53.0812 40.2097L57.858 8.87038H44.6953L45.8099 1.79022H79.4598L78.3452 8.87038H65.2886L60.5118 40.2097H53.0812Z" fill="#FAFCFF" fill-opacity="0.5"/>
<path d="M7.68424 21.0549C6.56965 28.4643 11.1872 33.6784 18.724 33.6784C24.0846 33.6784 28.6491 31.0988 31.3559 26.9276H39.2111C35.602 35.5445 27.163 41.033 17.6094 41.033C5.98582 41.033 -1.49783 32.471 0.25366 21.0549C2.05823 9.47415 12.0364 0.96698 23.7131 0.96698C33.2667 0.96698 40.0072 6.45548 41.0688 15.0724H33.2136C31.8336 10.8463 28.0122 8.32157 22.5985 8.32157C15.0087 8.32157 8.8519 13.4808 7.68424 21.0549Z" fill="#FAFCFF" fill-opacity="0.5"/>
</svg>
