<svg width="120" height="42" viewBox="0 0 120 42" fill="none" xmlns="http://www.w3.org/2000/svg">
<path d="M87.6783 24.5127L85.29 40.2098H77.8594L83.7508 1.79028H91.1813L88.7929 17.4874H93.039L109.917 1.79028H120.001L99.408 21L115.49 40.2098H105.14L91.7652 24.5127H87.6783Z" fill="#292C32" fill-opacity="0.4"/>
<path d="M53.0812 40.2098L57.858 8.87044H44.6953L45.8099 1.79028H79.4598L78.3452 8.87044H65.2886L60.5118 40.2098H53.0812Z" fill="#292C32" fill-opacity="0.4"/>
<path d="M7.68424 21.0549C6.56965 28.4644 11.1872 33.6785 18.724 33.6785C24.0846 33.6785 28.6491 31.0989 31.3559 26.9276H39.2111C35.602 35.5446 27.163 41.0331 17.6094 41.0331C5.98582 41.0331 -1.49783 32.471 0.25366 21.0549C2.05823 9.47421 12.0364 0.967041 23.7131 0.967041C33.2667 0.967041 40.0072 6.45554 41.0688 15.0725H33.2136C31.8336 10.8463 28.0122 8.32163 22.5985 8.32163C15.0087 8.32163 8.8519 13.4808 7.68424 21.0549Z" fill="#292C32" fill-opacity="0.4"/>
</svg>
