<svg width="95" height="48" viewBox="0 0 95 48" fill="none" xmlns="http://www.w3.org/2000/svg">
<path d="M0.253953 19L5.93795 0.744H10.866L16.55 19H12.182L9.82995 9.76C9.60595 8.84533 9.36329 7.87467 9.10195 6.848C8.84062 5.82133 8.59795 4.832 8.37395 3.88H8.26195C8.03795 4.832 7.80462 5.82133 7.56195 6.848C7.31929 7.87467 7.07662 8.84533 6.83395 9.76L4.45395 19H0.253953ZM4.00595 14.66V11.44H12.742V14.66H4.00595ZM17.631 19V0.744H24.099C25.387 0.744 26.563 0.921333 27.627 1.276C28.691 1.612 29.5403 2.2 30.175 3.04C30.8283 3.86133 31.155 4.99067 31.155 6.428C31.155 7.828 30.8283 8.96667 30.175 9.844C29.5403 10.7213 28.691 11.3747 27.627 11.804C26.563 12.2147 25.387 12.42 24.099 12.42H21.747V19H17.631ZM21.747 9.144H23.763C24.8457 9.144 25.667 8.92 26.227 8.472C26.8057 8.00533 27.095 7.324 27.095 6.428C27.095 5.532 26.8057 4.90667 26.227 4.552C25.667 4.19733 24.8457 4.02 23.763 4.02H21.747V9.144ZM23.343 11.356L26.199 8.696L32.023 19H27.403L23.343 11.356ZM37.6681 19V4.216H32.2081V0.744H47.2721V4.216H41.8121V19H37.6681ZM2.07395 47V43.528H6.32995V32.216H2.07395V28.744H14.73V32.216H10.474V43.528H14.73V47H2.07395ZM17.519 47V28.744H21.747L25.583 37.816L27.151 41.848H27.263C27.1697 40.8773 27.0483 39.7947 26.899 38.6C26.7497 37.4053 26.675 36.276 26.675 35.212V28.744H30.623V47H26.395L22.559 37.9L20.991 33.924H20.879C20.9723 34.9133 21.0937 35.996 21.243 37.172C21.3923 38.3293 21.467 39.4493 21.467 40.532V47H17.519ZM49.1091 47V28.744H55.5771C56.9025 28.744 58.0971 28.9307 59.1611 29.304C60.2438 29.6587 61.1025 30.2653 61.7371 31.124C62.3905 31.9827 62.7171 33.1493 62.7171 34.624C62.7171 36.0427 62.3905 37.2093 61.7371 38.124C61.0838 39.0387 60.2158 39.72 59.1331 40.168C58.0505 40.5973 56.8651 40.812 55.5771 40.812H53.2251V47H49.1091ZM53.2251 37.536H55.3251C56.4638 37.536 57.3038 37.284 57.8451 36.78C58.4051 36.276 58.6851 35.5573 58.6851 34.624C58.6851 33.6533 58.3958 32.9813 57.8171 32.608C57.2571 32.216 56.4265 32.02 55.3251 32.02H53.2251V37.536ZM65.2542 47V28.744H77.3502V32.216H69.3982V35.884H76.1462V39.328H69.3982V43.528H77.6302V47H65.2542ZM88.3153 47.336C87.1766 47.336 86.0939 47.14 85.0673 46.748C84.0593 46.356 83.1633 45.768 82.3793 44.984C81.5953 44.1813 80.9793 43.2013 80.5313 42.044C80.0833 40.868 79.8593 39.5147 79.8593 37.984C79.8593 35.968 80.2419 34.2507 81.0073 32.832C81.7913 31.3947 82.8366 30.3027 84.1433 29.556C85.4686 28.7907 86.9433 28.408 88.5673 28.408C89.7246 28.408 90.7699 28.6507 91.7033 29.136C92.6366 29.6027 93.4113 30.1347 94.0273 30.732L91.7593 33.28C91.3299 32.8693 90.8539 32.552 90.3313 32.328C89.8273 32.0853 89.2393 31.964 88.5673 31.964C87.7086 31.964 86.9433 32.2067 86.2713 32.692C85.5993 33.1587 85.0673 33.8307 84.6753 34.708C84.2833 35.5853 84.0873 36.6307 84.0873 37.844C84.0873 39.0947 84.2833 40.168 84.6753 41.064C85.0673 41.9413 85.6086 42.6133 86.2993 43.08C87.0086 43.5467 87.8206 43.78 88.7353 43.78C89.4073 43.78 90.0139 43.6307 90.5553 43.332C91.0966 43.0333 91.5913 42.6413 92.0393 42.156L94.3073 44.648C93.5606 45.5253 92.6833 46.1973 91.6753 46.664C90.6673 47.112 89.5473 47.336 88.3153 47.336Z" fill="#292C32" fill-opacity="0.4"/>
</svg>
