<svg width="220" height="114" viewBox="0 0 220 114" fill="none" xmlns="http://www.w3.org/2000/svg">
<path d="M68.8086 73.4028H82.4861V78.0899H75.9796V111.023H68.8086V73.4028Z" fill="#292C32" fill-opacity="0.4"/>
<path d="M90.5951 96.9002L91.8241 78.0899H92.2357L93.4647 96.9002H90.5951ZM82.6538 111.023H89.6749L90.3394 101.032H93.7205L94.3879 111.023H101.406L97.6662 73.4028H86.3937L82.6538 111.023Z" fill="#292C32" fill-opacity="0.4"/>
<path d="M111.676 97.8561V104.948C111.676 105.904 112.382 106.182 112.793 106.182C113.469 106.182 113.94 105.596 113.94 104.948V96.1909C113.94 95.0192 113.734 93.724 111.058 93.724H108.148V89.5919H111.176C113.205 89.5919 113.94 89.0985 113.94 86.7858V79.3234C113.94 78.6758 113.469 78.0899 112.793 78.0899C112.382 78.0899 111.676 78.3366 111.676 79.3234V85.4598H104.502V80.1251C104.502 77.504 104.796 73.4028 109.824 73.4028H115.763C120.79 73.4028 121.114 77.504 121.114 80.1251V86.1382C121.114 90.2395 118.379 91.3496 116.233 91.2571V91.6271C121.055 91.5038 121.114 95.3892 121.114 96.7152V104.301C121.114 106.953 120.79 111.023 115.763 111.023H109.824C104.796 111.023 104.502 106.953 104.502 104.301V97.8561H111.676Z" fill="#292C32" fill-opacity="0.4"/>
<path d="M125.818 73.4028H142.43V111.023H135.256V78.0899H132.992V111.023H125.818V73.4028Z" fill="#292C32" fill-opacity="0.4"/>
<path d="M154.308 94.0941V78.0899H155.249C156.014 78.0899 156.572 78.7683 156.572 79.9709V92.213C156.572 93.4157 156.014 94.0941 155.249 94.0941H154.308ZM147.134 111.023H154.308V98.2262H158.424C163.423 98.2262 163.746 94.1557 163.746 91.5038V80.1251C163.746 77.504 163.423 73.4028 158.424 73.4028H147.134V111.023Z" fill="#292C32" fill-opacity="0.4"/>
<path d="M177.888 104.948C177.888 105.596 177.418 106.182 176.741 106.182C176.33 106.182 175.624 105.904 175.624 104.948V79.3234C175.624 78.3366 176.33 78.0899 176.741 78.0899C177.418 78.0899 177.888 78.6758 177.888 79.3234V104.948ZM168.45 104.301C168.45 106.953 168.774 111.023 173.772 111.023H179.74C184.739 111.023 185.062 106.953 185.062 104.301V80.1251C185.062 77.504 184.739 73.4028 179.74 73.4028H173.772C168.774 73.4028 168.45 77.504 168.45 80.1251V104.301Z" fill="#292C32" fill-opacity="0.4"/>
<path d="M208.407 73.4028H217.757V111.023H210.583V87.4334H210.318L206.613 111.023H200.88L197.205 87.4334H196.94V111.023H189.766V73.4028H199.087L203.761 99.8605L208.407 73.4028Z" fill="#292C32" fill-opacity="0.4"/>
<path d="M59.5118 21.9675C57.3155 11.884 51.8116 3.6815 51.053 2.35553C49.8534 4.23655 45.4638 11.4831 43.2322 19.5006C40.7948 28.474 40.4361 36.4298 41.277 44.2314C42.112 52.0639 45.2668 60.1122 45.2668 60.1122C46.9427 64.306 49.4536 68.839 51.0883 71.0592C53.4845 67.7905 58.9914 58.0462 60.7085 45.3416C61.664 38.2492 61.7052 32.0511 59.5118 21.9675ZM51.053 68.5306C49.974 66.4029 48.2981 62.3633 48.1393 56.0727C48.0982 50.0287 50.4121 44.8173 51.0883 43.7381C51.691 44.8173 53.6844 49.3503 53.9226 55.5485C54.0843 61.5924 52.1673 66.372 51.053 68.5306ZM58.8738 39.0818C58.7915 42.9363 58.3534 47.0067 57.7948 49.4428C57.9947 45.2491 57.5155 39.3593 56.5981 34.7338C55.6808 30.1392 53.0846 22.4301 51.0118 18.8839C49.0978 22.2759 46.7398 28.9366 45.505 34.703C44.2642 40.4694 44.2289 47.4693 44.2289 49.5662C43.8996 47.8085 43.0764 41.487 43.3087 35.1655C43.5027 29.9542 44.667 24.5578 45.305 22.0909C47.7395 13.8575 50.4944 8.5845 51.0118 7.7519C51.5293 8.5845 54.9987 15.091 56.7981 21.9058C58.5886 28.7207 58.9503 35.258 58.8738 39.0818Z" fill="#292C32" fill-opacity="0.4"/>
<path d="M54.7782 73.4027H38.0811V85.1514C38.0958 85.1514 38.1076 85.1206 38.1223 85.1206C42.0562 80.9885 48.4363 80.9885 52.3732 85.1206C56.3071 89.2219 56.3071 95.9134 52.3732 100.045C52.3555 100.076 52.3379 100.076 52.3203 100.107C52.2997 100.107 52.2791 100.138 52.2614 100.169C48.3364 104.239 43.2087 106.274 38.0811 106.274C32.93 106.274 27.7788 104.239 23.8508 100.107C16.9238 92.8606 16.1035 81.6052 21.384 73.4027C22.0955 72.2926 22.9158 71.2442 23.8508 70.2574C27.7788 66.1253 32.93 64.0901 38.0811 64.0901V35.8439C18.288 35.8439 2.24365 52.6498 2.24365 73.4027C2.24365 94.1557 18.288 110.992 38.0811 110.992C48.401 110.992 57.6978 106.398 64.2367 99.0895V73.4027H54.7782Z" fill="#292C32" fill-opacity="0.4"/>
</svg>
