<svg width="527" height="220" viewBox="0 0 527 220" fill="none" xmlns="http://www.w3.org/2000/svg">
<path d="M374.399 216.986H342.658V3.34436H453.751C479.388 3.34436 498.006 8.2276 509.603 17.9941C521.201 27.7606 527 43.5293 527 65.3004C527 92.9721 517.233 111.284 497.7 120.237C516.013 127.562 525.169 142.924 525.169 166.322V216.986H493.733V167.543C493.733 156.352 490.477 148.315 483.966 143.432C477.455 138.346 467.18 135.802 453.141 135.802H374.399V216.986ZM374.399 105.892H451.92C467.18 105.892 478.269 103.044 485.187 97.3467C492.105 91.4461 495.564 82.0866 495.564 69.2681C495.564 56.653 492.105 47.497 485.187 41.7999C478.269 36.1027 467.18 33.2542 451.92 33.2542H374.399V105.892Z" fill="white" fill-opacity="0.05"/>
<path d="M259.503 216.986V3.34436H291.244V216.986H259.503Z" fill="white" fill-opacity="0.05"/>
<path d="M0 110.165C0 71.913 8.6474 44.1396 25.9422 26.8448C43.237 9.54998 71.0104 0.902588 109.262 0.902588C140.393 0.902588 164.402 6.5997 181.29 17.9939C198.382 29.1847 209.471 46.9881 214.557 71.4043H181.29C176.407 57.365 168.065 47.0899 156.264 40.5789C144.666 34.0679 128.999 30.8124 109.262 30.8124C82.2012 30.8124 62.4647 37.1199 50.0532 49.735C37.8451 62.1465 31.741 82.2899 31.741 110.165C31.741 138.244 38.1503 158.489 50.9688 170.9C63.7873 183.312 85.1515 189.518 115.061 189.518C138.46 189.518 155.551 185.855 166.335 178.53C177.323 171.002 182.816 159.201 182.816 143.127V130.919H107.736V102.84H214.862V143.127C214.862 169.781 206.825 189.212 190.751 201.421C174.881 213.425 149.549 219.427 114.756 219.427C73.859 219.427 44.4578 210.882 26.5526 193.79C8.85087 176.496 0 148.62 0 110.165Z" fill="white" fill-opacity="0.05"/>
</svg>
