<svg width="190" height="80" viewBox="0 0 190 80" fill="none" xmlns="http://www.w3.org/2000/svg">
<path d="M134.981 78.4075H123.537V1.38293H163.591C172.834 1.38293 179.547 3.1435 183.728 6.66462C187.91 10.1857 190 15.8709 190 23.72C190 33.6966 186.479 40.2987 179.437 43.5264C186.039 46.1672 189.34 51.7056 189.34 60.1416V78.4075H178.006V60.5818C178.006 56.5472 176.832 53.6496 174.485 51.889C172.137 50.0551 168.433 49.1381 163.371 49.1381H134.981V78.4075ZM134.981 38.3547H162.931C168.433 38.3547 172.431 37.3277 174.925 35.2737C177.419 33.1464 178.666 29.772 178.666 25.1505C178.666 20.6024 177.419 17.3013 174.925 15.2474C172.431 13.1934 168.433 12.1664 162.931 12.1664H134.981V38.3547Z" fill="#A6A9AD"/>
<path d="M93.5645 78.4075V1.38293H105.008V78.4075H93.5645Z" fill="#A6A9AD"/>
<path d="M0 39.8952C0 26.1041 3.11775 16.0909 9.35326 9.8556C15.5888 3.62028 25.6023 0.502625 39.3938 0.502625C50.6177 0.502625 59.274 2.55661 65.3628 6.66458C71.525 10.6992 75.523 17.1179 77.357 25.9207H65.3628C63.6022 20.8591 60.5945 17.1546 56.3397 14.8072C52.1582 12.4598 46.5096 11.2861 39.3938 11.2861C29.637 11.2861 22.5212 13.5601 18.0463 18.1082C13.6448 22.583 11.444 29.8453 11.444 39.8952C11.444 50.0184 13.7548 57.3174 18.3764 61.7921C22.998 66.2669 30.7007 68.5043 41.4845 68.5043C49.9208 68.5043 56.0829 67.1838 59.9709 64.543C63.9323 61.8288 65.913 57.5741 65.913 51.7789V47.3775H38.8436V37.2543H77.467V51.7789C77.467 61.3887 74.5694 68.3942 68.774 72.7956C63.052 77.1237 53.9188 79.2877 41.3744 79.2877C26.6293 79.2877 16.0289 76.2067 9.57334 70.0448C3.19111 63.8094 0 53.7596 0 39.8952Z" fill="#A6A9AD"/>
</svg>
