<svg width="1044" height="180" viewBox="0 0 1044 180" fill="none" xmlns="http://www.w3.org/2000/svg">
<path d="M4.76837e-07 140V-9.53674e-06H10.2V99.4L69.2 38.6H81.8L41 80.8L85.2 140H72.8L34 88.2L10.2 112.6V140H4.76837e-07ZM193.294 130.6H197.094V140H191.094C179.094 140 174.094 134.8 174.494 122.8V119.2C168.294 131.8 156.094 141.2 135.494 141.2C113.894 141.2 99.6938 130.2 99.6938 112.2C99.6938 93.2 113.694 82 139.694 82H174.094V73.2C174.094 56.4 163.294 46.4 144.294 46.4C127.094 46.4 116.294 54.6 113.694 67H103.494C106.094 48.6 121.494 37.4 144.694 37.4C170.094 37.4 184.294 50.4 184.294 73.6V120.8C184.294 128.6 187.294 130.6 193.294 130.6ZM174.094 99V90.8H138.894C120.094 90.8 110.094 98.2 110.094 111.6C110.094 124.2 120.094 132.4 136.294 132.4C160.294 132.4 174.094 118.4 174.094 99ZM245.814 140L205.214 38.6H216.214L251.414 126.8L286.014 38.6H297.014L248.414 158.8C242.014 174.8 238.814 180 225.214 180H209.614V170.6H222.414C232.814 170.6 234.614 167.6 239.214 156.4L245.814 140ZM404.02 130.6H407.82V140H401.82C389.82 140 384.82 134.8 385.22 122.8V119.2C379.02 131.8 366.82 141.2 346.22 141.2C324.62 141.2 310.42 130.2 310.42 112.2C310.42 93.2 324.42 82 350.42 82H384.82V73.2C384.82 56.4 374.02 46.4 355.02 46.4C337.82 46.4 327.02 54.6 324.42 67H314.22C316.82 48.6 332.22 37.4 355.42 37.4C380.82 37.4 395.02 50.4 395.02 73.6V120.8C395.02 128.6 398.02 130.6 404.02 130.6ZM384.82 99V90.8H349.62C330.82 90.8 320.82 98.2 320.82 111.6C320.82 124.2 330.82 132.4 347.02 132.4C371.02 132.4 384.82 118.4 384.82 99ZM486.767 108.8H497.167C497.967 123.4 510.567 132.4 529.967 132.4C546.567 132.4 559.167 124.8 559.167 112.8C559.167 97.8 545.367 95.6 528.367 93.2C507.567 90.4 488.767 86.6 488.767 66.2C488.767 48.8 504.967 37.2 527.567 37.4C549.567 37.4 565.767 47.4 567.567 67.2H557.167C555.367 54 543.767 46.2 527.567 46.2C510.367 46.2 498.967 53.8 498.967 65.4C498.967 79.6 512.967 81.4 528.767 83.6C550.567 86.6 569.367 90.8 569.367 112.2C569.367 130.2 551.767 141.2 529.967 141.2C504.567 141.2 487.567 129.8 486.767 108.8ZM604.428 116.4V48H585.228V38.6H604.428V10.2H614.628V38.6H642.028V48H614.628V116.2C614.628 126.6 618.428 130.6 629.028 130.6H643.028V140H628.228C611.028 140 604.428 132.6 604.428 116.4ZM740.147 88.4V38.6H750.347V140H741.347L739.947 118.6C734.147 131.6 722.347 141.2 704.347 141.2C681.947 141.2 665.347 127.2 665.347 95.4V38.6H675.547V94.8C675.547 119 687.147 131.8 705.947 131.8C726.947 131.8 740.147 115 740.147 88.4ZM865.159 61.4V-9.53674e-06H875.359V140H866.559L864.959 116.8C858.559 131 845.359 141.2 826.359 141.2C798.559 141.2 778.559 121.2 778.559 89.2C778.559 58.6 798.559 37.4 826.359 37.4C845.359 37.4 858.959 47 865.159 61.4ZM827.159 132C849.759 132 865.359 114.4 865.359 89.4C865.359 64.2 849.759 46.4 827.159 46.4C804.559 46.4 788.959 64.2 788.959 89.2C788.959 114.4 804.559 132 827.159 132ZM912.552 17.2C908.552 17.2 905.352 14.2 905.352 9.99999C905.352 5.8 908.552 2.79999 912.552 2.79999C916.552 2.79999 919.752 5.8 919.752 9.99999C919.752 14.2 916.552 17.2 912.552 17.2ZM907.352 140V38.6H917.552V140H907.352ZM994.331 141.2C965.731 141.2 945.731 120 945.731 89.2C945.731 58.6 965.731 37.4 994.331 37.4C1022.93 37.4 1043.13 58.6 1043.13 89.2C1043.13 120 1022.93 141.2 994.331 141.2ZM994.331 132C1016.93 132 1032.53 114.4 1032.53 89.2C1032.53 64.2 1016.93 46.4 994.331 46.4C971.731 46.4 956.131 64.2 956.131 89.2C956.131 114.4 971.731 132 994.331 132Z" fill="#292C32"/>
</svg>
