<svg width="366" height="63" viewBox="0 0 366 63" fill="none" xmlns="http://www.w3.org/2000/svg">
<path d="M0.2 49V-3.33786e-06H3.77V34.79L24.42 13.51H28.83L14.55 28.28L30.02 49H25.68L12.1 30.87L3.77 39.41V49H0.2ZM67.8528 45.71H69.1828V49H67.0828C62.8828 49 61.1328 47.18 61.2728 42.98V41.72C59.1028 46.13 54.8328 49.42 47.6228 49.42C40.0628 49.42 35.0928 45.57 35.0928 39.27C35.0928 32.62 39.9928 28.7 49.0928 28.7H61.1328V25.62C61.1328 19.74 57.3528 16.24 50.7028 16.24C44.6828 16.24 40.9028 19.11 39.9928 23.45H36.4228C37.3328 17.01 42.7228 13.09 50.8428 13.09C59.7328 13.09 64.7028 17.64 64.7028 25.76V42.28C64.7028 45.01 65.7528 45.71 67.8528 45.71ZM61.1328 34.65V31.78H48.8128C42.2328 31.78 38.7328 34.37 38.7328 39.06C38.7328 43.47 42.2328 46.34 47.9028 46.34C56.3028 46.34 61.1328 41.44 61.1328 34.65ZM86.2349 49L72.0249 13.51H75.8749L88.1949 44.38L100.305 13.51H104.155L87.1449 55.58C84.9049 61.18 83.7849 63 79.0249 63H73.5649V59.71H78.0449C81.6849 59.71 82.3149 58.66 83.9249 54.74L86.2349 49ZM141.607 45.71H142.937V49H140.837C136.637 49 134.887 47.18 135.027 42.98V41.72C132.857 46.13 128.587 49.42 121.377 49.42C113.817 49.42 108.847 45.57 108.847 39.27C108.847 32.62 113.747 28.7 122.847 28.7H134.887V25.62C134.887 19.74 131.107 16.24 124.457 16.24C118.437 16.24 114.657 19.11 113.747 23.45H110.177C111.087 17.01 116.477 13.09 124.597 13.09C133.487 13.09 138.457 17.64 138.457 25.76V42.28C138.457 45.01 139.507 45.71 141.607 45.71ZM134.887 34.65V31.78H122.567C115.987 31.78 112.487 34.37 112.487 39.06C112.487 43.47 115.987 46.34 121.657 46.34C130.057 46.34 134.887 41.44 134.887 34.65Z" fill="#292C32"/>
</svg>
