<svg width="20" height="20" viewBox="0 0 20 20" fill="none" xmlns="http://www.w3.org/2000/svg">
<path d="M15.436 13.5466C10.0235 13.5466 6.48075 10.0589 6.48075 4.6386C6.48075 3.40529 6.73212 1.92061 7.10133 1.03295C7.18774 0.836564 7.20345 0.703021 7.20345 0.616611C7.20345 0.349526 7.00707 0.074585 6.65357 0.074585C6.5436 0.074585 6.3472 0.0981513 6.15868 0.168851C2.47447 1.66139 0 5.62839 0 9.82317C0 15.6441 4.46975 19.8939 10.2907 19.8939C14.564 19.8939 18.3739 17.2937 19.6229 14.0101C19.6936 13.8138 19.7094 13.6096 19.7094 13.5232C19.7094 13.1775 19.4344 12.9418 19.1516 12.9418C19.0416 12.9418 18.9474 12.9575 18.7824 13.0125C18.0047 13.2717 16.7243 13.5466 15.436 13.5466Z" fill="#FAFCFF"/>
</svg>
