<svg width="330" height="104" viewBox="0 0 330 104" fill="none" xmlns="http://www.w3.org/2000/svg">
<g clip-path="url(#clip0_929_761)">
<path d="M28.0083 81.313C24.0243 81.313 20.4723 80.6474 17.3523 79.3162C14.2323 77.9374 11.5923 76.0595 9.43233 73.6823C7.27233 71.3052 5.61633 68.5239 4.46433 65.3386C3.31233 62.1057 2.73633 58.635 2.73633 54.9267C2.73633 51.1708 3.31233 47.6526 4.46433 44.3722C5.61633 41.0917 7.27233 38.2391 9.43233 35.8145C11.5923 33.3898 14.2323 31.4881 17.3523 30.1093C20.4723 28.7306 24.0243 28.0412 28.0083 28.0412C30.7923 28.0412 33.4563 28.4453 36.0003 29.2535C38.5443 30.0618 40.8003 31.2503 42.7683 32.8193C44.7843 34.3406 46.4403 36.2423 47.7363 38.5244C49.0323 40.8065 49.8483 43.4213 50.1843 46.369H39.2403C39.0483 45.0853 38.6163 43.9205 37.9443 42.8746C37.2723 41.7811 36.4323 40.8302 35.4243 40.022C34.4163 39.2138 33.2643 38.5957 31.9683 38.1678C30.7203 37.6924 29.4003 37.4547 28.0083 37.4547C25.4643 37.4547 23.3043 37.9539 21.5283 38.9523C19.7523 39.9031 18.3123 41.2106 17.2083 42.8746C16.1043 44.491 15.2883 46.3452 14.7603 48.4371C14.2803 50.529 14.0403 52.6922 14.0403 54.9267C14.0403 57.0661 14.2803 59.158 14.7603 61.2023C15.2883 63.1991 16.1043 65.0058 17.2083 66.6222C18.3123 68.2387 19.7523 69.5461 21.5283 70.5445C23.3043 71.4954 25.4643 71.9708 28.0083 71.9708C31.4643 71.9708 34.1523 70.9249 36.0723 68.833C38.0403 66.7411 39.2403 63.9836 39.6723 60.5605H50.6163C50.3283 63.7934 49.5843 66.6935 48.3843 69.2608C47.1843 71.7806 45.6003 73.9438 43.6323 75.7505C41.6643 77.5571 39.3603 78.9358 36.7203 79.8867C34.0803 80.8375 31.1763 81.313 28.0083 81.313ZM68.9916 38.667H53.5836V29.2535H95.7036V38.667H80.2956V80.1719H68.9916V38.667ZM100.911 29.2535H112.215V49.6494L132.303 29.2535H146.415L124.239 50.5765L148.359 80.1719H134.175L116.031 57.5653L112.215 61.6302V80.1719H100.911V29.2535Z" fill="#FAFCFF" fill-opacity="0.4"/>
<path d="M181.086 40.0625H177.234V37.7091H187.764V40.0625H183.912V50.4387H181.086V40.0625ZM189.246 37.7091H195.042C195.846 37.7091 196.53 37.8279 197.094 38.0657C197.658 38.2915 198.114 38.5946 198.462 38.9749C198.822 39.3553 199.08 39.795 199.236 40.2942C199.404 40.7815 199.488 41.2807 199.488 41.7918C199.488 42.3148 199.404 42.8199 199.236 43.3073C199.08 43.7946 198.822 44.2284 198.462 44.6087C198.114 44.9891 197.658 45.2981 197.094 45.5358C196.53 45.7617 195.846 45.8746 195.042 45.8746H192.072V50.4387H189.246V37.7091ZM194.268 43.6995C194.592 43.6995 194.904 43.6757 195.204 43.6282C195.504 43.5806 195.768 43.4915 195.996 43.3607C196.224 43.2181 196.404 43.022 196.536 42.7724C196.68 42.5228 196.752 42.1959 196.752 41.7918C196.752 41.3877 196.68 41.0609 196.536 40.8113C196.404 40.5617 196.224 40.3715 195.996 40.2407C195.768 40.0981 195.504 40.003 195.204 39.9555C194.904 39.9079 194.592 39.8842 194.268 39.8842H192.072V43.6995H194.268ZM204.762 37.7091H207.66L212.466 50.4387H209.532L208.56 47.6039H203.754L202.746 50.4387H199.902L204.762 37.7091ZM207.822 45.518L206.202 40.8469H206.166L204.492 45.518H207.822ZM213.574 37.7091H216.4V42.5941H221.602V37.7091H224.428V50.4387H221.602V44.9475H216.4V50.4387H213.574V37.7091ZM232.676 50.7239C231.68 50.7239 230.792 50.5575 230.012 50.2247C229.232 49.8801 228.572 49.4106 228.032 48.8163C227.492 48.222 227.078 47.5267 226.79 46.7303C226.502 45.9221 226.358 45.0545 226.358 44.1274C226.358 43.1884 226.502 42.3089 226.79 41.4887C227.078 40.6686 227.492 39.9555 228.032 39.3493C228.572 38.7431 229.232 38.2677 230.012 37.923C230.792 37.5783 231.68 37.406 232.676 37.406C233.372 37.406 234.038 37.507 234.674 37.7091C235.31 37.9111 235.874 38.2083 236.366 38.6005C236.87 38.9809 237.284 39.4563 237.608 40.0268C237.932 40.5973 238.136 41.251 238.22 41.9879H235.484C235.436 41.667 235.328 41.3758 235.16 41.1143C234.992 40.841 234.782 40.6033 234.53 40.4012C234.278 40.1991 233.99 40.0446 233.666 39.9377C233.354 39.8188 233.024 39.7594 232.676 39.7594C232.04 39.7594 231.5 39.8842 231.056 40.1338C230.612 40.3715 230.252 40.6983 229.976 41.1143C229.7 41.5185 229.496 41.982 229.364 42.505C229.244 43.0279 229.184 43.5687 229.184 44.1274C229.184 44.6622 229.244 45.1852 229.364 45.6963C229.496 46.1955 229.7 46.6471 229.976 47.0513C230.252 47.4554 230.612 47.7822 231.056 48.0318C231.5 48.2695 232.04 48.3884 232.676 48.3884C233.54 48.3884 234.212 48.1269 234.692 47.6039C235.184 47.081 235.484 46.3916 235.592 45.5358H238.328C238.256 46.3441 238.07 47.0691 237.77 47.7109C237.47 48.3409 237.074 48.8817 236.582 49.3333C236.09 49.785 235.514 50.1297 234.854 50.3674C234.194 50.6051 233.468 50.7239 232.676 50.7239ZM240.258 37.7091H250.95V50.4387H248.124V40.0625H243.084V50.4387H240.258V37.7091ZM259.202 50.7239C258.206 50.7239 257.318 50.5575 256.538 50.2247C255.758 49.8801 255.098 49.4106 254.558 48.8163C254.018 48.222 253.604 47.5267 253.316 46.7303C253.028 45.9221 252.884 45.0545 252.884 44.1274C252.884 43.1884 253.028 42.3089 253.316 41.4887C253.604 40.6686 254.018 39.9555 254.558 39.3493C255.098 38.7431 255.758 38.2677 256.538 37.923C257.318 37.5783 258.206 37.406 259.202 37.406C260.186 37.406 261.068 37.5783 261.848 37.923C262.64 38.2677 263.306 38.7431 263.846 39.3493C264.386 39.9555 264.8 40.6686 265.088 41.4887C265.376 42.3089 265.52 43.1884 265.52 44.1274C265.52 45.0545 265.376 45.9221 265.088 46.7303C264.8 47.5267 264.386 48.222 263.846 48.8163C263.306 49.4106 262.64 49.8801 261.848 50.2247C261.068 50.5575 260.186 50.7239 259.202 50.7239ZM259.202 48.3884C259.838 48.3884 260.378 48.2695 260.822 48.0318C261.266 47.7822 261.626 47.4554 261.902 47.0513C262.178 46.6471 262.376 46.1955 262.496 45.6963C262.628 45.1852 262.694 44.6622 262.694 44.1274C262.694 43.5687 262.628 43.0279 262.496 42.505C262.376 41.982 262.178 41.5185 261.902 41.1143C261.626 40.6983 261.266 40.3715 260.822 40.1338C260.378 39.8842 259.838 39.7594 259.202 39.7594C258.566 39.7594 258.026 39.8842 257.582 40.1338C257.138 40.3715 256.778 40.6983 256.502 41.1143C256.226 41.5185 256.022 41.982 255.89 42.505C255.77 43.0279 255.71 43.5687 255.71 44.1274C255.71 44.6622 255.77 45.1852 255.89 45.6963C256.022 46.1955 256.226 46.6471 256.502 47.0513C256.778 47.4554 257.138 47.7822 257.582 48.0318C258.026 48.2695 258.566 48.3884 259.202 48.3884ZM267.451 37.7091H273.247C274.051 37.7091 274.735 37.8279 275.299 38.0657C275.863 38.2915 276.319 38.5946 276.667 38.9749C277.027 39.3553 277.285 39.795 277.441 40.2942C277.609 40.7815 277.693 41.2807 277.693 41.7918C277.693 42.3148 277.609 42.8199 277.441 43.3073C277.285 43.7946 277.027 44.2284 276.667 44.6087C276.319 44.9891 275.863 45.2981 275.299 45.5358C274.735 45.7617 274.051 45.8746 273.247 45.8746H270.277V50.4387H267.451V37.7091ZM272.473 43.6995C272.797 43.6995 273.109 43.6757 273.409 43.6282C273.709 43.5806 273.973 43.4915 274.201 43.3607C274.429 43.2181 274.609 43.022 274.741 42.7724C274.885 42.5228 274.957 42.1959 274.957 41.7918C274.957 41.3877 274.885 41.0609 274.741 40.8113C274.609 40.5617 274.429 40.3715 274.201 40.2407C273.973 40.0981 273.709 40.003 273.409 39.9555C273.109 39.9079 272.797 39.8842 272.473 39.8842H270.277V43.6995H272.473ZM282.301 40.0625H278.449V37.7091H288.979V40.0625H285.127V50.4387H282.301V40.0625ZM290.461 37.7091H293.287V42.5941H298.489V37.7091H301.314V50.4387H298.489V44.9475H293.287V50.4387H290.461V37.7091ZM307.314 37.7091H310.212L315.018 50.4387H312.084L311.112 47.6039H306.306L305.298 50.4387H302.454L307.314 37.7091ZM310.374 45.518L308.754 40.8469H308.718L307.044 45.518H310.374ZM318.825 45.411C317.973 45.1971 317.283 44.7692 316.755 44.1274C316.239 43.4737 315.981 42.6298 315.981 41.5957C315.981 40.9182 316.101 40.3358 316.341 39.8485C316.581 39.3612 316.899 38.9571 317.295 38.6362C317.703 38.3153 318.171 38.0835 318.699 37.9409C319.239 37.7863 319.803 37.7091 320.391 37.7091H326.691V50.4387H323.883V45.6428H321.885L318.465 50.4387H314.937L318.825 45.411ZM323.883 43.5569V39.902H321.093C320.793 39.902 320.499 39.9258 320.211 39.9733C319.935 40.009 319.683 40.0922 319.455 40.2229C319.239 40.3418 319.065 40.5141 318.933 40.7399C318.801 40.9539 318.735 41.2451 318.735 41.6135C318.735 42.0058 318.801 42.3267 318.933 42.5763C319.077 42.8259 319.263 43.0279 319.491 43.1825C319.719 43.3251 319.983 43.4261 320.283 43.4855C320.583 43.5331 320.895 43.5569 321.219 43.5569H323.883ZM178.242 58.5091H181.068V63.6081L186.09 58.5091H189.618L184.074 63.8398L190.104 71.2387H186.558L182.022 65.587L181.068 66.6033V71.2387H178.242V58.5091ZM196.993 71.5239C195.997 71.5239 195.109 71.3575 194.329 71.0247C193.549 70.6801 192.889 70.2106 192.349 69.6163C191.809 69.022 191.395 68.3267 191.107 67.5303C190.819 66.7221 190.675 65.8545 190.675 64.9274C190.675 63.9884 190.819 63.1089 191.107 62.2887C191.395 61.4686 191.809 60.7555 192.349 60.1493C192.889 59.5431 193.549 59.0677 194.329 58.723C195.109 58.3783 195.997 58.206 196.993 58.206C197.977 58.206 198.859 58.3783 199.639 58.723C200.431 59.0677 201.097 59.5431 201.637 60.1493C202.177 60.7555 202.591 61.4686 202.879 62.2887C203.167 63.1089 203.311 63.9884 203.311 64.9274C203.311 65.8545 203.167 66.7221 202.879 67.5303C202.591 68.3267 202.177 69.022 201.637 69.6163C201.097 70.2106 200.431 70.6801 199.639 71.0247C198.859 71.3575 197.977 71.5239 196.993 71.5239ZM196.993 69.1884C197.629 69.1884 198.169 69.0695 198.613 68.8318C199.057 68.5822 199.417 68.2554 199.693 67.8513C199.969 67.4471 200.167 66.9955 200.287 66.4963C200.419 65.9852 200.485 65.4622 200.485 64.9274C200.485 64.3687 200.419 63.8279 200.287 63.305C200.167 62.782 199.969 62.3185 199.693 61.9143C199.417 61.4983 199.057 61.1715 198.613 60.9338C198.169 60.6842 197.629 60.5594 196.993 60.5594C196.357 60.5594 195.817 60.6842 195.373 60.9338C194.929 61.1715 194.569 61.4983 194.293 61.9143C194.017 62.3185 193.813 62.782 193.681 63.305C193.561 63.8279 193.501 64.3687 193.501 64.9274C193.501 65.4622 193.561 65.9852 193.681 66.4963C193.813 66.9955 194.017 67.4471 194.293 67.8513C194.569 68.2554 194.929 68.5822 195.373 68.8318C195.817 69.0695 196.357 69.1884 196.993 69.1884ZM205.242 58.5091H209.22L212.226 67.2629H212.262L215.106 58.5091H219.084V71.2387H216.438V62.2174H216.402L213.252 71.2387H211.074L207.924 62.3066H207.888V71.2387H205.242V58.5091ZM221.573 58.5091H232.265V71.2387H229.439V60.8625H224.399V71.2387H221.573V58.5091ZM238.266 58.5091H241.164L245.97 71.2387H243.036L242.064 68.4039H237.258L236.25 71.2387H233.406L238.266 58.5091ZM241.326 66.318L239.706 61.6469H239.67L237.996 66.318H241.326ZM247.078 58.5091H249.904V63.3941H255.106V58.5091H257.932V71.2387H255.106V65.7475H249.904V71.2387H247.078V58.5091ZM260.42 58.5091H263.228V67.3342H263.282L268.178 58.5091H271.346V71.2387H268.538V62.3957H268.484L263.588 71.2387H260.42V58.5091ZM276.532 66.211C275.68 65.9971 274.99 65.5692 274.462 64.9274C273.946 64.2737 273.688 63.4298 273.688 62.3957C273.688 61.7182 273.808 61.1358 274.048 60.6485C274.288 60.1612 274.606 59.7571 275.002 59.4362C275.41 59.1153 275.878 58.8835 276.406 58.7409C276.946 58.5863 277.51 58.5091 278.098 58.5091H284.398V71.2387H281.59V66.4428H279.592L276.172 71.2387H272.644L276.532 66.211ZM281.59 64.3569V60.702H278.8C278.5 60.702 278.206 60.7258 277.918 60.7733C277.642 60.809 277.39 60.8922 277.162 61.0229C276.946 61.1418 276.772 61.3141 276.64 61.5399C276.508 61.7539 276.442 62.0451 276.442 62.4135C276.442 62.8058 276.508 63.1267 276.64 63.3763C276.784 63.6259 276.97 63.8279 277.198 63.9825C277.426 64.1251 277.69 64.2261 277.99 64.2855C278.29 64.3331 278.602 64.3569 278.926 64.3569H281.59Z" fill="#FAFCFF" fill-opacity="0.4"/>
<path d="M165 1.48571C165 0.665177 164.328 0 163.5 0C162.672 0 162 0.665177 162 1.48571V102.514C162 103.335 162.672 104 163.5 104C164.328 104 165 103.335 165 102.514V1.48571Z" fill="#FAFCFF" fill-opacity="0.4"/>
</g>
<defs>
<clipPath id="clip0_929_761">
<rect width="330" height="103.79" fill="white"/>
</clipPath>
</defs>
</svg>
