<svg width="110" height="35" viewBox="0 0 110 35" fill="none" xmlns="http://www.w3.org/2000/svg">
<path d="M9.336 27.384C8.008 27.384 6.824 27.16 5.784 26.712C4.744 26.248 3.864 25.616 3.144 24.816C2.424 24.016 1.872 23.08 1.488 22.008C1.104 20.92 0.912 19.752 0.912 18.504C0.912 17.24 1.104 16.056 1.488 14.952C1.872 13.848 2.424 12.888 3.144 12.072C3.864 11.256 4.744 10.616 5.784 10.152C6.824 9.688 8.008 9.456 9.336 9.456C10.264 9.456 11.152 9.592 12 9.864C12.848 10.136 13.6 10.536 14.256 11.064C14.928 11.576 15.48 12.216 15.912 12.984C16.344 13.752 16.616 14.632 16.728 15.624H13.08C13.016 15.192 12.872 14.8 12.648 14.448C12.424 14.08 12.144 13.76 11.808 13.488C11.472 13.216 11.088 13.008 10.656 12.864C10.24 12.704 9.8 12.624 9.336 12.624C8.488 12.624 7.768 12.792 7.176 13.128C6.584 13.448 6.104 13.888 5.736 14.448C5.368 14.992 5.096 15.616 4.92 16.32C4.76 17.024 4.68 17.752 4.68 18.504C4.68 19.224 4.76 19.928 4.92 20.616C5.096 21.288 5.368 21.896 5.736 22.44C6.104 22.984 6.584 23.424 7.176 23.76C7.768 24.08 8.488 24.24 9.336 24.24C10.488 24.24 11.384 23.888 12.024 23.184C12.68 22.48 13.08 21.552 13.224 20.4H16.872C16.776 21.488 16.528 22.464 16.128 23.328C15.728 24.176 15.2 24.904 14.544 25.512C13.888 26.12 13.12 26.584 12.24 26.904C11.36 27.224 10.392 27.384 9.336 27.384ZM22.9971 13.032H17.8611V9.864H31.9011V13.032H26.7651V27H22.9971V13.032ZM33.6369 9.864H37.4049V16.728L44.1009 9.864H48.8049L41.4129 17.04L49.4529 27H44.7249L38.6769 19.392L37.4049 20.76V27H33.6369V9.864Z" fill="#292C32"/>
<path d="M60.362 13.508H59.078V12.716H62.588V13.508H61.304V17H60.362V13.508ZM63.082 12.716H65.014C65.282 12.716 65.51 12.756 65.698 12.836C65.886 12.912 66.038 13.014 66.154 13.142C66.274 13.27 66.36 13.418 66.412 13.586C66.468 13.75 66.496 13.918 66.496 14.09C66.496 14.266 66.468 14.436 66.412 14.6C66.36 14.764 66.274 14.91 66.154 15.038C66.038 15.166 65.886 15.27 65.698 15.35C65.51 15.426 65.282 15.464 65.014 15.464H64.024V17H63.082V12.716ZM64.756 14.732C64.864 14.732 64.968 14.724 65.068 14.708C65.168 14.692 65.256 14.662 65.332 14.618C65.408 14.57 65.468 14.504 65.512 14.42C65.56 14.336 65.584 14.226 65.584 14.09C65.584 13.954 65.56 13.844 65.512 13.76C65.468 13.676 65.408 13.612 65.332 13.568C65.256 13.52 65.168 13.488 65.068 13.472C64.968 13.456 64.864 13.448 64.756 13.448H64.024V14.732H64.756ZM68.2539 12.716H69.2199L70.8219 17H69.8439L69.5199 16.046H67.9179L67.5819 17H66.6339L68.2539 12.716ZM69.2739 15.344L68.7339 13.772H68.7219L68.1639 15.344H69.2739ZM71.1913 12.716H72.1333V14.36H73.8673V12.716H74.8093V17H73.8673V15.152H72.1333V17H71.1913V12.716ZM77.5586 17.096C77.2266 17.096 76.9306 17.04 76.6706 16.928C76.4106 16.812 76.1906 16.654 76.0106 16.454C75.8306 16.254 75.6926 16.02 75.5966 15.752C75.5006 15.48 75.4526 15.188 75.4526 14.876C75.4526 14.56 75.5006 14.264 75.5966 13.988C75.6926 13.712 75.8306 13.472 76.0106 13.268C76.1906 13.064 76.4106 12.904 76.6706 12.788C76.9306 12.672 77.2266 12.614 77.5586 12.614C77.7906 12.614 78.0126 12.648 78.2246 12.716C78.4366 12.784 78.6246 12.884 78.7886 13.016C78.9566 13.144 79.0946 13.304 79.2026 13.496C79.3106 13.688 79.3786 13.908 79.4066 14.156H78.4946C78.4786 14.048 78.4426 13.95 78.3866 13.862C78.3306 13.77 78.2606 13.69 78.1766 13.622C78.0926 13.554 77.9966 13.502 77.8886 13.466C77.7846 13.426 77.6746 13.406 77.5586 13.406C77.3466 13.406 77.1666 13.448 77.0186 13.532C76.8706 13.612 76.7506 13.722 76.6586 13.862C76.5666 13.998 76.4986 14.154 76.4546 14.33C76.4146 14.506 76.3946 14.688 76.3946 14.876C76.3946 15.056 76.4146 15.232 76.4546 15.404C76.4986 15.572 76.5666 15.724 76.6586 15.86C76.7506 15.996 76.8706 16.106 77.0186 16.19C77.1666 16.27 77.3466 16.31 77.5586 16.31C77.8466 16.31 78.0706 16.222 78.2306 16.046C78.3946 15.87 78.4946 15.638 78.5306 15.35H79.4426C79.4186 15.622 79.3566 15.866 79.2566 16.082C79.1566 16.294 79.0246 16.476 78.8606 16.628C78.6966 16.78 78.5046 16.896 78.2846 16.976C78.0646 17.056 77.8226 17.096 77.5586 17.096ZM80.0859 12.716H83.6499V17H82.7079V13.508H81.0279V17H80.0859V12.716ZM86.4004 17.096C86.0684 17.096 85.7724 17.04 85.5124 16.928C85.2524 16.812 85.0324 16.654 84.8524 16.454C84.6724 16.254 84.5344 16.02 84.4384 15.752C84.3424 15.48 84.2944 15.188 84.2944 14.876C84.2944 14.56 84.3424 14.264 84.4384 13.988C84.5344 13.712 84.6724 13.472 84.8524 13.268C85.0324 13.064 85.2524 12.904 85.5124 12.788C85.7724 12.672 86.0684 12.614 86.4004 12.614C86.7284 12.614 87.0224 12.672 87.2824 12.788C87.5464 12.904 87.7684 13.064 87.9484 13.268C88.1284 13.472 88.2664 13.712 88.3624 13.988C88.4584 14.264 88.5064 14.56 88.5064 14.876C88.5064 15.188 88.4584 15.48 88.3624 15.752C88.2664 16.02 88.1284 16.254 87.9484 16.454C87.7684 16.654 87.5464 16.812 87.2824 16.928C87.0224 17.04 86.7284 17.096 86.4004 17.096ZM86.4004 16.31C86.6124 16.31 86.7924 16.27 86.9404 16.19C87.0884 16.106 87.2084 15.996 87.3004 15.86C87.3924 15.724 87.4584 15.572 87.4984 15.404C87.5424 15.232 87.5644 15.056 87.5644 14.876C87.5644 14.688 87.5424 14.506 87.4984 14.33C87.4584 14.154 87.3924 13.998 87.3004 13.862C87.2084 13.722 87.0884 13.612 86.9404 13.532C86.7924 13.448 86.6124 13.406 86.4004 13.406C86.1884 13.406 86.0084 13.448 85.8604 13.532C85.7124 13.612 85.5924 13.722 85.5004 13.862C85.4084 13.998 85.3404 14.154 85.2964 14.33C85.2564 14.506 85.2364 14.688 85.2364 14.876C85.2364 15.056 85.2564 15.232 85.2964 15.404C85.3404 15.572 85.4084 15.724 85.5004 15.86C85.5924 15.996 85.7124 16.106 85.8604 16.19C86.0084 16.27 86.1884 16.31 86.4004 16.31ZM89.1503 12.716H91.0823C91.3503 12.716 91.5783 12.756 91.7663 12.836C91.9543 12.912 92.1063 13.014 92.2223 13.142C92.3423 13.27 92.4283 13.418 92.4803 13.586C92.5363 13.75 92.5643 13.918 92.5643 14.09C92.5643 14.266 92.5363 14.436 92.4803 14.6C92.4283 14.764 92.3423 14.91 92.2223 15.038C92.1063 15.166 91.9543 15.27 91.7663 15.35C91.5783 15.426 91.3503 15.464 91.0823 15.464H90.0923V17H89.1503V12.716ZM90.8243 14.732C90.9323 14.732 91.0363 14.724 91.1363 14.708C91.2363 14.692 91.3243 14.662 91.4003 14.618C91.4763 14.57 91.5363 14.504 91.5803 14.42C91.6283 14.336 91.6523 14.226 91.6523 14.09C91.6523 13.954 91.6283 13.844 91.5803 13.76C91.5363 13.676 91.4763 13.612 91.4003 13.568C91.3243 13.52 91.2363 13.488 91.1363 13.472C91.0363 13.456 90.9323 13.448 90.8243 13.448H90.0923V14.732H90.8243ZM94.1003 13.508H92.8163V12.716H96.3263V13.508H95.0423V17H94.1003V13.508ZM96.8203 12.716H97.7623V14.36H99.4963V12.716H100.438V17H99.4963V15.152H97.7623V17H96.8203V12.716ZM102.438 12.716H103.404L105.006 17H104.028L103.704 16.046H102.102L101.766 17H100.818L102.438 12.716ZM103.458 15.344L102.918 13.772H102.906L102.348 15.344H103.458ZM106.275 15.308C105.991 15.236 105.761 15.092 105.585 14.876C105.413 14.656 105.327 14.372 105.327 14.024C105.327 13.796 105.367 13.6 105.447 13.436C105.527 13.272 105.633 13.136 105.765 13.028C105.901 12.92 106.057 12.842 106.233 12.794C106.413 12.742 106.601 12.716 106.797 12.716H108.897V17H107.961V15.386H107.295L106.155 17H104.979L106.275 15.308ZM107.961 14.684V13.454H107.031C106.931 13.454 106.833 13.462 106.737 13.478C106.645 13.49 106.561 13.518 106.485 13.562C106.413 13.602 106.355 13.66 106.311 13.736C106.267 13.808 106.245 13.906 106.245 14.03C106.245 14.162 106.267 14.27 106.311 14.354C106.359 14.438 106.421 14.506 106.497 14.558C106.573 14.606 106.661 14.64 106.761 14.66C106.861 14.676 106.965 14.684 107.073 14.684H107.961ZM59.414 19.716H60.356V21.432L62.03 19.716H63.206L61.358 21.51L63.368 24H62.186L60.674 22.098L60.356 22.44V24H59.414V19.716ZM65.6641 24.096C65.3321 24.096 65.0361 24.04 64.7761 23.928C64.5161 23.812 64.2961 23.654 64.1161 23.454C63.9361 23.254 63.7981 23.02 63.7021 22.752C63.6061 22.48 63.5581 22.188 63.5581 21.876C63.5581 21.56 63.6061 21.264 63.7021 20.988C63.7981 20.712 63.9361 20.472 64.1161 20.268C64.2961 20.064 64.5161 19.904 64.7761 19.788C65.0361 19.672 65.3321 19.614 65.6641 19.614C65.9921 19.614 66.2861 19.672 66.5461 19.788C66.8101 19.904 67.0321 20.064 67.2121 20.268C67.3921 20.472 67.5301 20.712 67.6261 20.988C67.7221 21.264 67.7701 21.56 67.7701 21.876C67.7701 22.188 67.7221 22.48 67.6261 22.752C67.5301 23.02 67.3921 23.254 67.2121 23.454C67.0321 23.654 66.8101 23.812 66.5461 23.928C66.2861 24.04 65.9921 24.096 65.6641 24.096ZM65.6641 23.31C65.8761 23.31 66.0561 23.27 66.2041 23.19C66.3521 23.106 66.4721 22.996 66.5641 22.86C66.6561 22.724 66.7221 22.572 66.7621 22.404C66.8061 22.232 66.8281 22.056 66.8281 21.876C66.8281 21.688 66.8061 21.506 66.7621 21.33C66.7221 21.154 66.6561 20.998 66.5641 20.862C66.4721 20.722 66.3521 20.612 66.2041 20.532C66.0561 20.448 65.8761 20.406 65.6641 20.406C65.4521 20.406 65.2721 20.448 65.1241 20.532C64.9761 20.612 64.8561 20.722 64.7641 20.862C64.6721 20.998 64.6041 21.154 64.5601 21.33C64.5201 21.506 64.5001 21.688 64.5001 21.876C64.5001 22.056 64.5201 22.232 64.5601 22.404C64.6041 22.572 64.6721 22.724 64.7641 22.86C64.8561 22.996 64.9761 23.106 65.1241 23.19C65.2721 23.27 65.4521 23.31 65.6641 23.31ZM68.414 19.716H69.74L70.742 22.662H70.754L71.702 19.716H73.028V24H72.146V20.964H72.134L71.084 24H70.358L69.308 20.994H69.296V24H68.414V19.716ZM73.8574 19.716H77.4214V24H76.4794V20.508H74.7994V24H73.8574V19.716ZM79.4219 19.716H80.3879L81.9899 24H81.0119L80.6879 23.046H79.0859L78.7499 24H77.8019L79.4219 19.716ZM80.4419 22.344L79.9019 20.772H79.8899L79.3319 22.344H80.4419ZM82.3593 19.716H83.3013V21.36H85.0353V19.716H85.9773V24H85.0353V22.152H83.3013V24H82.3593V19.716ZM86.8066 19.716H87.7426V22.686H87.7606L89.3926 19.716H90.4486V24H89.5126V21.024H89.4946L87.8626 24H86.8066V19.716ZM92.1773 22.308C91.8933 22.236 91.6633 22.092 91.4873 21.876C91.3153 21.656 91.2293 21.372 91.2293 21.024C91.2293 20.796 91.2693 20.6 91.3493 20.436C91.4293 20.272 91.5353 20.136 91.6673 20.028C91.8033 19.92 91.9593 19.842 92.1353 19.794C92.3153 19.742 92.5033 19.716 92.6993 19.716H94.7993V24H93.8633V22.386H93.1973L92.0573 24H90.8813L92.1773 22.308ZM93.8633 21.684V20.454H92.9333C92.8333 20.454 92.7353 20.462 92.6393 20.478C92.5473 20.49 92.4633 20.518 92.3873 20.562C92.3153 20.602 92.2573 20.66 92.2133 20.736C92.1693 20.808 92.1473 20.906 92.1473 21.03C92.1473 21.162 92.1693 21.27 92.2133 21.354C92.2613 21.438 92.3233 21.506 92.3993 21.558C92.4753 21.606 92.5633 21.64 92.6633 21.66C92.7633 21.676 92.8673 21.684 92.9753 21.684H93.8633Z" fill="#292C32"/>
<rect x="54" width="1" height="35" rx="0.5" fill="#292C32"/>
</svg>
