<svg width="28" height="28" viewBox="0 0 28 28" fill="none" xmlns="http://www.w3.org/2000/svg">
<g clip-path="url(#clip0_781_40)">
<path d="M13.8109 4.93036C14.3383 4.93036 14.7562 4.50249 14.7562 3.98508V1.08956C14.7562 0.572147 14.3383 0.144287 13.8109 0.144287C13.2935 0.144287 12.8756 0.572147 12.8756 1.08956V3.98508C12.8756 4.50249 13.2935 4.93036 13.8109 4.93036ZM20.2089 7.59701C20.5771 7.95523 21.1741 7.96517 21.5522 7.59701L23.602 5.54726C23.9601 5.17911 23.9601 4.57214 23.602 4.20399C23.2338 3.84577 22.6368 3.84577 22.2687 4.20399L20.2089 6.26368C19.8507 6.63184 19.8507 7.22885 20.2089 7.59701ZM22.8557 13.9951C22.8557 14.5125 23.2836 14.9303 23.801 14.9303H26.6865C27.2039 14.9303 27.6318 14.5125 27.6318 13.9951C27.6318 13.4776 27.2039 13.0497 26.6865 13.0497H23.801C23.2836 13.0497 22.8557 13.4776 22.8557 13.9951ZM20.2089 20.393C19.8507 20.7612 19.8507 21.3582 20.2089 21.7263L22.2687 23.786C22.6368 24.1443 23.2338 24.1343 23.602 23.7761C23.9601 23.4079 23.9601 22.8209 23.602 22.4527L21.5423 20.393C21.1741 20.0348 20.5771 20.0348 20.2089 20.393ZM13.8109 23.0596C13.2935 23.0596 12.8756 23.4776 12.8756 23.995V26.8905C12.8756 27.4179 13.2935 27.8358 13.8109 27.8358C14.3383 27.8358 14.7562 27.4179 14.7562 26.8905V23.995C14.7562 23.4776 14.3383 23.0596 13.8109 23.0596ZM7.42288 20.393C7.05472 20.0348 6.44775 20.0348 6.0796 20.393L4.02985 22.4428C3.67164 22.8109 3.67164 23.398 4.01989 23.7662C4.38805 24.1244 4.98507 24.1343 5.35323 23.7761L7.41293 21.7263C7.77113 21.3582 7.77113 20.7612 7.42288 20.393ZM4.76616 13.9951C4.76616 13.4776 4.34826 13.0497 3.83085 13.0497H0.945272C0.42786 13.0497 0 13.4776 0 13.9951C0 14.5125 0.42786 14.9303 0.945272 14.9303H3.83085C4.34826 14.9303 4.76616 14.5125 4.76616 13.9951ZM7.41293 7.59701C7.77113 7.23881 7.77113 6.62189 7.42288 6.26368L5.36318 4.20399C5.00497 3.85573 4.40795 3.84577 4.03979 4.20399C3.68159 4.57214 3.68159 5.17911 4.02985 5.53732L6.0796 7.59701C6.44775 7.95523 7.04477 7.95523 7.41293 7.59701Z" fill="#292C32"/>
<path d="M13.8008 20.403C17.3033 20.403 20.2088 17.4975 20.2088 13.9951C20.2088 10.4826 17.3033 7.57715 13.8008 7.57715C10.2983 7.57715 7.40283 10.4826 7.40283 13.9951C7.40283 17.4975 10.2983 20.403 13.8008 20.403Z" fill="#292C32"/>
</g>
<defs>
<clipPath id="clip0_781_40">
<rect width="28" height="27.7114" fill="white" transform="translate(0 0.144287)"/>
</clipPath>
</defs>
</svg>
