<svg width="26" height="26" viewBox="0 0 26 26" fill="none" xmlns="http://www.w3.org/2000/svg">
<path d="M12.8244 4.57812C13.3142 4.57812 13.7022 4.18081 13.7022 3.70036V1.01166C13.7022 0.53121 13.3142 0.133911 12.8244 0.133911C12.344 0.133911 11.9559 0.53121 11.9559 1.01166V3.70036C11.9559 4.18081 12.344 4.57812 12.8244 4.57812ZM18.7655 7.0543C19.1073 7.38693 19.6616 7.39616 20.0127 7.0543L21.9161 5.15096C22.2487 4.8091 22.2487 4.24549 21.9161 3.90363C21.5742 3.571 21.0199 3.571 20.678 3.90363L18.7655 5.81621C18.4328 6.15807 18.4328 6.71243 18.7655 7.0543ZM21.2231 12.9953C21.2231 13.4758 21.6205 13.8638 22.1009 13.8638H24.7803C25.2608 13.8638 25.6581 13.4758 25.6581 12.9953C25.6581 12.5148 25.2608 12.1175 24.7803 12.1175H22.1009C21.6205 12.1175 21.2231 12.5148 21.2231 12.9953ZM18.7655 18.9363C18.4328 19.2782 18.4328 19.8325 18.7655 20.1744L20.678 22.087C21.0199 22.4196 21.5742 22.4103 21.9161 22.0778C22.2487 21.7358 22.2487 21.1908 21.9161 20.8489L20.0036 18.9363C19.6616 18.6037 19.1073 18.6037 18.7655 18.9363ZM12.8244 21.4125C12.344 21.4125 11.9559 21.8006 11.9559 22.281V24.9697C11.9559 25.4594 12.344 25.8474 12.8244 25.8474C13.3142 25.8474 13.7022 25.4594 13.7022 24.9697V22.281C13.7022 21.8006 13.3142 21.4125 12.8244 21.4125ZM6.89268 18.9363C6.55081 18.6037 5.9872 18.6037 5.64534 18.9363L3.742 20.8397C3.40938 21.1815 3.40938 21.7267 3.73276 22.0685C4.07462 22.4012 4.62899 22.4103 4.97086 22.0778L6.88343 20.1744C7.21605 19.8325 7.21605 19.2782 6.89268 18.9363ZM4.42572 12.9953C4.42572 12.5148 4.03767 12.1175 3.55721 12.1175H0.877753C0.397299 12.1175 0 12.5148 0 12.9953C0 13.4758 0.397299 13.8638 0.877753 13.8638H3.55721C4.03767 13.8638 4.42572 13.4758 4.42572 12.9953ZM6.88343 7.0543C7.21605 6.72168 7.21605 6.14883 6.89268 5.81621L4.98009 3.90363C4.64747 3.58025 4.0931 3.571 3.75124 3.90363C3.41862 4.24549 3.41862 4.8091 3.742 5.14172L5.64534 7.0543C5.9872 7.38693 6.54157 7.38693 6.88343 7.0543Z" fill="#FAFCFF" fill-opacity="0.2"/>
<path d="M12.816 18.9455C16.0683 18.9455 18.7663 16.2475 18.7663 12.9953C18.7663 9.73372 16.0683 7.03577 12.816 7.03577C9.56368 7.03577 6.875 9.73372 6.875 12.9953C6.875 16.2475 9.56368 18.9455 12.816 18.9455Z" fill="#FAFCFF" fill-opacity="0.2"/>
</svg>
