<svg width="55" height="55" viewBox="0 0 55 55" fill="none" xmlns="http://www.w3.org/2000/svg">
<rect width="55" height="55" rx="4" fill="black" fill-opacity="0.05"/>
<path d="M19.3079 23.1718C19.2165 23.251 19.142 23.349 19.0892 23.4596C19.0363 23.5703 19.0062 23.6912 19.0009 23.8146C18.9955 23.938 19.015 24.0613 19.058 24.1764C19.101 24.2916 19.1667 24.3962 19.2508 24.4835C19.3349 24.5709 19.4357 24.6391 19.5466 24.6838C19.6575 24.7285 19.7761 24.7487 19.895 24.7431C20.0138 24.7375 20.1303 24.7063 20.2368 24.6514C20.3434 24.5965 20.4378 24.5191 20.514 24.4243L26.6748 18.0343V39.1555C26.6865 39.3835 26.7819 39.5982 26.9415 39.7553C27.101 39.9124 27.3125 40 27.5324 40C27.7523 40 27.9638 39.9124 28.1233 39.7553C28.2829 39.5982 28.3783 39.3835 28.3899 39.1555V18.0343L34.5435 24.4343C34.706 24.5954 34.922 24.6853 35.1466 24.6853C35.3712 24.6853 35.5872 24.5954 35.7497 24.4343C35.829 24.3521 35.892 24.2545 35.9349 24.1471C35.9779 24.0396 36 23.9244 36 23.8081C36 23.6917 35.9779 23.5765 35.9349 23.4691C35.892 23.3616 35.829 23.264 35.7497 23.1818L28.127 15.2664C28.0489 15.1822 27.9553 15.1151 27.8516 15.0694C27.748 15.0236 27.6366 15 27.5239 15C27.4113 15 27.2999 15.0236 27.1963 15.0694C27.0926 15.1151 26.999 15.1822 26.9209 15.2664L19.3079 23.1718Z" fill="black" fill-opacity="0.4"/>
</svg>
