<svg width="14" height="20" viewBox="0 0 14 20" fill="none" xmlns="http://www.w3.org/2000/svg">
<path d="M0.44651 6.53746C0.373417 6.60076 0.313827 6.67918 0.271538 6.76771C0.229249 6.85625 0.20519 6.95297 0.200894 7.0517C0.196598 7.15042 0.212159 7.249 0.246586 7.34114C0.281013 7.43327 0.333551 7.51695 0.400849 7.58683C0.468147 7.65672 0.548729 7.71127 0.637458 7.74702C0.726186 7.78277 0.821115 7.79893 0.916192 7.79447C1.01127 7.79001 1.10441 7.76502 1.18967 7.72111C1.27493 7.6772 1.35045 7.61532 1.4114 7.53942L6.34007 2.42745V19.3244C6.34939 19.5068 6.42573 19.6786 6.55337 19.8042C6.681 19.9299 6.8502 20 7.02611 20C7.20201 20 7.37121 19.9299 7.49885 19.8042C7.62648 19.6786 7.70283 19.5068 7.71215 19.3244V2.42745L12.635 7.54743C12.765 7.6763 12.9378 7.74821 13.1175 7.74821C13.2972 7.74821 13.47 7.6763 13.5999 7.54743C13.6634 7.48172 13.7138 7.40364 13.7481 7.31767C13.7825 7.2317 13.8002 7.13954 13.8002 7.04646C13.8002 6.95338 13.7825 6.86121 13.7481 6.77524C13.7138 6.68928 13.6634 6.61119 13.5999 6.54548L7.5018 0.213128C7.43932 0.14573 7.3644 0.0921185 7.2815 0.0554955C7.1986 0.0188744 7.10944 -7.15256e-07 7.01935 -7.15256e-07C6.92927 -7.15256e-07 6.84011 0.0188744 6.75721 0.0554955C6.67431 0.0921185 6.59938 0.14573 6.53691 0.213128L0.44651 6.53746Z" fill="#292C32" fill-opacity="0.4"/>
</svg>
