<svg width="14" height="20" viewBox="0 0 14 20" fill="none" xmlns="http://www.w3.org/2000/svg">
<path d="M0.445533 6.53746C0.37244 6.60076 0.31285 6.67918 0.270561 6.76771C0.228272 6.85625 0.204213 6.95297 0.199917 7.0517C0.195621 7.15042 0.211183 7.249 0.24561 7.34114C0.280037 7.43327 0.332574 7.51695 0.399872 7.58683C0.46717 7.65672 0.547752 7.71127 0.636481 7.74702C0.72521 7.78277 0.820138 7.79893 0.915215 7.79447C1.01029 7.79001 1.10343 7.76502 1.18869 7.72111C1.27396 7.6772 1.34947 7.61532 1.41043 7.53942L6.33909 2.42745V19.3244C6.34841 19.5068 6.42476 19.6786 6.55239 19.8042C6.68003 19.9299 6.84923 20 7.02513 20C7.20103 20 7.37024 19.9299 7.49787 19.8042C7.62551 19.6786 7.70185 19.5068 7.71117 19.3244V2.42745L12.634 7.54743C12.764 7.6763 12.9368 7.74821 13.1165 7.74821C13.2962 7.74821 13.469 7.6763 13.5989 7.54743C13.6624 7.48172 13.7128 7.40364 13.7472 7.31767C13.7815 7.2317 13.7992 7.13954 13.7992 7.04646C13.7992 6.95338 13.7815 6.86121 13.7472 6.77524C13.7128 6.68928 13.6624 6.61119 13.5989 6.54548L7.50082 0.213128C7.43835 0.14573 7.36342 0.0921185 7.28052 0.0554955C7.19763 0.0188744 7.10846 -7.15256e-07 7.01838 -7.15256e-07C6.92829 -7.15256e-07 6.83913 0.0188744 6.75623 0.0554955C6.67334 0.0921185 6.59841 0.14573 6.53593 0.213128L0.445533 6.53746Z" fill="#FAFCFF"/>
</svg>
